<svg width="426" height="720" viewBox="0 0 426 720" fill="none" xmlns="http://www.w3.org/2000/svg">
<path d="M125.415 720H343.789C297.077 658.455 250.366 596.909 276.821 551.5C303.277 506.091 402.9 476.818 416.581 432C430.261 387.182 357.999 326.818 353.98 273C349.961 219.182 414.184 171.909 423.86 127.5C433.535 83.0909 388.662 41.5455 343.789 0H125.415L125.415 720Z" fill="url(#paint0_linear_144_2)" fill-opacity="0.6"/>
<path d="M0 720H153.28C135.214 667.171 117.148 614.343 125.179 573.331C133.209 532.318 167.337 503.123 179.848 449.871C192.36 396.62 183.256 319.312 177.294 271.103C171.331 222.893 168.51 203.782 165.031 164.928C161.553 126.073 157.416 67.474 153.28 8.87524H0L0 720Z" fill="url(#paint1_linear_144_2)" fill-opacity="0.53"/>
<g filter="url(#filter0_d_144_2)">
<path d="M0.000183105 720H218.374C171.662 658.455 124.951 596.909 151.406 551.5C177.862 506.091 277.485 476.818 291.166 432C304.846 387.182 232.584 326.818 228.565 273C224.546 219.182 288.769 171.909 298.445 127.5C308.12 83.0909 263.247 41.5455 218.374 0H0.000183105L0.000183105 720Z" fill="url(#paint2_linear_144_2)"/>
</g>
<defs>
<filter id="filter0_d_144_2" x="-16.9999" y="-13" width="333.773" height="754" filterUnits="userSpaceOnUse" color-interpolation-filters="sRGB">
<feFlood flood-opacity="0" result="BackgroundImageFix"/>
<feColorMatrix in="SourceAlpha" type="matrix" values="0 0 0 0 0 0 0 0 0 0 0 0 0 0 0 0 0 0 127 0" result="hardAlpha"/>
<feOffset dy="4"/>
<feGaussianBlur stdDeviation="8.5"/>
<feComposite in2="hardAlpha" operator="out"/>
<feColorMatrix type="matrix" values="0 0 0 0 0 0 0 0 0 0 0 0 0 0 0 0 0 0 0.25 0"/>
<feBlend mode="normal" in2="BackgroundImageFix" result="effect1_dropShadow_144_2"/>
<feBlend mode="normal" in="SourceGraphic" in2="effect1_dropShadow_144_2" result="shape"/>
</filter>
<linearGradient id="paint0_linear_144_2" x1="275.301" y1="720" x2="275.301" y2="0" gradientUnits="userSpaceOnUse">
<stop offset="0.05" stop-color="white"/>
<stop offset="0.95" stop-color="#EDEDED"/>
</linearGradient>
<linearGradient id="paint1_linear_144_2" x1="145.172" y1="700.548" x2="145.172" y2="-10.5768" gradientUnits="userSpaceOnUse">
<stop offset="0.05" stop-color="#002BDC"/>
<stop offset="0.95" stop-color="#32DED4"/>
</linearGradient>
<linearGradient id="paint2_linear_144_2" x1="149.886" y1="720" x2="149.886" y2="0" gradientUnits="userSpaceOnUse">
<stop offset="0.05" stop-color="#FF7A00"/>
<stop offset="0.95" stop-color="#DE4732"/>
</linearGradient>
</defs>
</svg>
